<svg xmlns="http://www.w3.org/2000/svg" xmlns:xlink="http://www.w3.org/1999/xlink" version="1.1" x="0px" y="0px" viewBox="0 0 140 175" xml:space="preserve"><path d="M127.9365234,63.5351562H35.1009521l-3.005249-11.1171875c-0.1181641-0.4365234-0.5136719-0.7392578-0.9658203-0.7392578  H28.102417c0.5113525-6.2338867,5.7380371-11.1523438,12.1016846-11.1523438h65.8232422  c8.0078125,0,14.5234375-6.515625,14.5234375-14.5234375s-6.515625-14.5224609-14.5234375-14.5224609H56.2421875  c-0.5527344,0-1,0.4472656-1,1s0.4472656,1,1,1h49.7851562c6.9052734,0,12.5234375,5.6171875,12.5234375,12.5224609  s-5.6181641,12.5234375-12.5234375,12.5234375H40.2041016c-7.4661865,0-13.5849609,5.8154297-14.1016846,13.1523438h-3.1287842  c-0.4521484,0-0.8476562,0.3027344-0.9658203,0.7392578l-3.005249,11.1171875h-6.9390869  C8.1689453,63.5351562,5,66.7041016,5,70.5986328v50.8583984c0,3.8945312,3.1689453,7.0625,7.0634766,7.0625h115.8730469  c3.8945312,0,7.0634766-3.1679688,7.0634766-7.0625V70.5986328C135,66.7041016,131.8310547,63.5351562,127.9365234,63.5351562z   M23.7392578,53.6787109h6.625l2.6650391,9.8564453H21.0742188L23.7392578,53.6787109z M133,121.4570312  c0,2.7910156-2.2714844,5.0625-5.0634766,5.0625H12.0634766c-2.7919922,0-5.0634766-2.2714844-5.0634766-5.0625V70.5986328  c0-2.7919922,2.2714844-5.0634766,5.0634766-5.0634766h7.7041016h14.5683594h93.6005859  c2.7919922,0,5.0634766,2.2714844,5.0634766,5.0634766V121.4570312z"/><path d="M12.3212891,85.8691406h10.0478516c0.5527344,0,1-0.4472656,1-1V73.3408203c0-0.5527344-0.4472656-1-1-1H12.3212891  c-0.5527344,0-1,0.4472656-1,1v11.5283203C11.3212891,85.421875,11.7685547,85.8691406,12.3212891,85.8691406z   M13.3212891,74.3408203h8.0478516v9.5283203h-8.0478516V74.3408203z"/><path d="M37.3916016,72.3408203H27.34375c-0.5527344,0-1,0.4472656-1,1v11.5283203c0,0.5527344,0.4472656,1,1,1h10.0478516  c0.5527344,0,1-0.4472656,1-1V73.3408203C38.3916016,72.7880859,37.9443359,72.3408203,37.3916016,72.3408203z   M36.3916016,83.8691406H28.34375v-9.5283203h8.0478516V83.8691406z"/><path d="M42.3671875,85.8691406h10.0478516c0.5527344,0,1-0.4472656,1-1V73.3408203c0-0.5527344-0.4472656-1-1-1H42.3671875  c-0.5527344,0-1,0.4472656-1,1v11.5283203C41.3671875,85.421875,41.8144531,85.8691406,42.3671875,85.8691406z   M43.3671875,74.3408203h8.0478516v9.5283203h-8.0478516V74.3408203z"/><path d="M57.3896484,85.8691406H67.4375c0.5527344,0,1-0.4472656,1-1V73.3408203c0-0.5527344-0.4472656-1-1-1H57.3896484  c-0.5527344,0-1,0.4472656-1,1v11.5283203C56.3896484,85.421875,56.8369141,85.8691406,57.3896484,85.8691406z   M58.3896484,74.3408203H66.4375v9.5283203h-8.0478516V74.3408203z"/><path d="M72.4130859,85.8691406h10.0478516c0.5527344,0,1-0.4472656,1-1V73.3408203c0-0.5527344-0.4472656-1-1-1H72.4130859  c-0.5527344,0-1,0.4472656-1,1v11.5283203C71.4130859,85.421875,71.8603516,85.8691406,72.4130859,85.8691406z   M73.4130859,74.3408203h8.0478516v9.5283203h-8.0478516V74.3408203z"/><path d="M87.4355469,85.8691406h10.0478516c0.5527344,0,1-0.4472656,1-1V73.3408203c0-0.5527344-0.4472656-1-1-1H87.4355469  c-0.5527344,0-1,0.4472656-1,1v11.5283203C86.4355469,85.421875,86.8828125,85.8691406,87.4355469,85.8691406z   M88.4355469,74.3408203h8.0478516v9.5283203h-8.0478516V74.3408203z"/><path d="M127.6787109,72.3408203h-10.0478516c-0.5527344,0-1,0.4472656-1,1v11.5283203c0,0.5527344,0.4472656,1,1,1h10.0478516  c0.5527344,0,1-0.4472656,1-1V73.3408203C128.6787109,72.7880859,128.2314453,72.3408203,127.6787109,72.3408203z   M126.6787109,83.8691406h-8.0478516v-9.5283203h8.0478516V83.8691406z"/><path d="M127.6787109,90.1953125h-10.0478516c-0.5527344,0-1,0.4472656-1,1v11.5273438c0,0.5527344,0.4472656,1,1,1h10.0478516  c0.5527344,0,1-0.4472656,1-1V91.1953125C128.6787109,90.6425781,128.2314453,90.1953125,127.6787109,90.1953125z   M126.6787109,101.7226562h-8.0478516v-9.5273438h8.0478516V101.7226562z"/><path d="M12.3212891,103.7744141h10.0478516c0.5527344,0,1-0.4472656,1-1V91.2470703c0-0.5527344-0.4472656-1-1-1H12.3212891  c-0.5527344,0-1,0.4472656-1,1v11.5273438C11.3212891,103.3271484,11.7685547,103.7744141,12.3212891,103.7744141z   M13.3212891,92.2470703h8.0478516v9.5273438h-8.0478516V92.2470703z"/><path d="M37.3916016,90.2470703H27.34375c-0.5527344,0-1,0.4472656-1,1v11.5273438c0,0.5527344,0.4472656,1,1,1h10.0478516  c0.5527344,0,1-0.4472656,1-1V91.2470703C38.3916016,90.6943359,37.9443359,90.2470703,37.3916016,90.2470703z   M36.3916016,101.7744141H28.34375v-9.5273438h8.0478516V101.7744141z"/><path d="M42.3671875,103.7744141h10.0478516c0.5527344,0,1-0.4472656,1-1V91.2470703c0-0.5527344-0.4472656-1-1-1H42.3671875  c-0.5527344,0-1,0.4472656-1,1v11.5273438C41.3671875,103.3271484,41.8144531,103.7744141,42.3671875,103.7744141z   M43.3671875,92.2470703h8.0478516v9.5273438h-8.0478516V92.2470703z"/><path d="M57.3896484,103.7744141H67.4375c0.5527344,0,1-0.4472656,1-1V91.2470703c0-0.5527344-0.4472656-1-1-1H57.3896484  c-0.5527344,0-1,0.4472656-1,1v11.5273438C56.3896484,103.3271484,56.8369141,103.7744141,57.3896484,103.7744141z   M58.3896484,92.2470703H66.4375v9.5273438h-8.0478516V92.2470703z"/><path d="M72.4130859,103.7744141h10.0478516c0.5527344,0,1-0.4472656,1-1V91.2470703c0-0.5527344-0.4472656-1-1-1H72.4130859  c-0.5527344,0-1,0.4472656-1,1v11.5273438C71.4130859,103.3271484,71.8603516,103.7744141,72.4130859,103.7744141z   M73.4130859,92.2470703h8.0478516v9.5273438h-8.0478516V92.2470703z"/><path d="M127.6787109,108.0488281h-17.2353516c-0.5527344,0-1,0.4472656-1,1v11.5283203c0,0.5527344,0.4472656,1,1,1h17.2353516  c0.5527344,0,1-0.4472656,1-1v-11.5283203C128.6787109,108.4960938,128.2314453,108.0488281,127.6787109,108.0488281z   M126.6787109,119.5771484h-15.2353516v-9.5283203h15.2353516V119.5771484z"/><path d="M86.4375,91.2460938v11.5234375c0,0.5527344,0.4472656,1,1,1h25.0429688c0.5527344,0,1-0.4472656,1-1V71.4775391  c0-0.5527344-0.4472656-1-1-1H102.4375c-0.5527344,0-1,0.4472656-1,1v18.7685547h-14  C86.8847656,90.2460938,86.4375,90.6933594,86.4375,91.2460938z M88.4375,92.2460938h14c0.5527344,0,1-0.4472656,1-1V72.4775391  h8.0429688v29.2919922H88.4375V92.2460938z"/><path d="M103.3867188,108.0488281H40.9951172c-0.5527344,0-1,0.4472656-1,1v11.5283203c0,0.5527344,0.4472656,1,1,1h62.3916016  c0.5527344,0,1-0.4472656,1-1v-11.5283203C104.3867188,108.4960938,103.9394531,108.0488281,103.3867188,108.0488281z   M102.3867188,119.5771484H41.9951172v-9.5283203h60.3916016V119.5771484z"/><path d="M35.0917969,108.0488281H12.3212891c-0.5527344,0-1,0.4472656-1,1v11.5283203c0,0.5527344,0.4472656,1,1,1h22.7705078  c0.5527344,0,1-0.4472656,1-1v-11.5283203C36.0917969,108.4960938,35.6445312,108.0488281,35.0917969,108.0488281z   M34.0917969,119.5771484H13.3212891v-9.5283203h20.7705078V119.5771484z"/></svg>