<svg xmlns="http://www.w3.org/2000/svg" data-name="Camada 1" viewBox="0 0 38 50" x="0px" y="0px"><path d="M37.53,6.62l-2.4-4.5A4,4,0,0,0,31.6,0H6.4A4,4,0,0,0,2.87,2.12L.47,6.62A4,4,0,0,0,0,8.5V36a4,4,0,0,0,4,4H34a4,4,0,0,0,4-4V8.5A4,4,0,0,0,37.53,6.62ZM5,4A2,2,0,0,1,7,2H31a2,2,0,0,1,2,2V28a2,2,0,0,1-2,2H7a2,2,0,0,1-2-2ZM4,38a2,2,0,0,1-2-2V8.5a2,2,0,0,1,.24-.94L4,4.25V28a3,3,0,0,0,3,3H6.46l-.68.68h0l0,0L3.9,33.56l-.71,1.65a2,2,0,0,0,0,1.47L6.9,32.94h0l0,0L8.84,31h1L7.45,33.41l0,0h0L3.54,37.31A2,2,0,0,0,5,38Zm1.23,0,3.4-3.4,0,0h0L12.23,31h1L9.14,35.11l0,0h0L6.25,38Zm5.57-1.16L9.65,38h-1l1.7-1.7,0,0h0L15.63,31h1l-5.81,5.81,0,0ZM12,38h0l0,0h0l7-7h1l-7,7Zm3.39,0,7-7h1l-7,7Zm3.39,0,6.76-6.76h0l0,0,.2-.2h1l-.68.68h0l0,0L19.83,38Zm3.39,0,5.06-5.06h0l0,0L29.2,31h1l-2.41,2.41,0,0h0L23.22,38ZM36,36a2,2,0,0,1-2,2H32.39l0,0h0l2.46-2.46a2,2,0,0,0-.08-.29l-.6-1.4-3,3,0,0h0L30,38H29l1.67-1.67,0,0,0,0,3.17-3.17-.38-.88a2,2,0,0,0-.47-.64l-3.51,3.51,0,0,0,0L26.62,38h-1L29,34.6l0,0h0l3.4-3.4a2,2,0,0,0-.75-.17H31a3,3,0,0,0,3-3V4.25l1.76,3.31A2,2,0,0,1,36,8.5Z"/><path d="M34.89,36.52l-1.42,1.42A2,2,0,0,0,34.89,36.52Z"/><path d="M18.29,19a1,1,0,0,0,1.41,0l4.59-4.59a1,1,0,0,0,0-1.41,1,1,0,0,0-1.42,0L19,16.88,15.11,13a1,1,0,0,0-1.41,1.41Z"/></svg>